<svg xmlns="http://www.w3.org/2000/svg" width="1000" height="1000" viewBox="0 0 1000 1000" fill="none"><circle cx="500" cy="500" r="500" fill="url(#paint0_linear_3384_24)"></circle><path fill-rule="evenodd" clip-rule="evenodd" d="M506.532 801.271C446.865 801.271 419.136 792.551 370.937 757.673C340.45 796.911 243.908 827.575 239.698 775.112C239.698 735.728 230.987 702.448 221.115 666.116C209.356 621.356 196 571.508 196 499.281C196 326.777 337.402 197 504.935 197C672.614 197 803.998 333.172 803.998 500.879C804.561 665.993 671.473 800.39 506.532 801.271ZM509 346.106C427.411 341.891 363.824 398.424 349.742 487.073C338.128 560.463 358.743 649.84 376.309 654.49C384.729 656.525 405.925 639.376 419.136 626.151C440.981 641.258 466.419 650.331 492.885 652.456C577.425 656.526 649.661 592.099 655.338 507.564C658.642 422.851 593.551 351.099 509 346.251L509 346.106Z" fill="white"></path><defs><linearGradient id="paint0_linear_3384_24" x1="77" y1="778.5" x2="833.5" y2="307.5" gradientUnits="userSpaceOnUse"><stop stop-color="#36B6FD"></stop><stop offset="0.543269" stop-color="#374BEC"></stop><stop offset="1" stop-color="#9B47DD"></stop></linearGradient></defs></svg>